<?xml version="1.0" encoding="utf-8"?>
<!-- Generator: Adobe Illustrator 25.2.0, SVG Export Plug-In . SVG Version: 6.00 Build 0)  -->
<svg version="1.1" id="Layer_1" xmlns="http://www.w3.org/2000/svg" xmlns:xlink="http://www.w3.org/1999/xlink" x="0px" y="0px"
	 viewBox="0 0 2000 2000" style="enable-background:new 0 0 2000 2000;" xml:space="preserve">
<style type="text/css">
	.st0{fill:#000000;}
	.st1{fill:#FFFFFF;}
	.st2{fill:#FFFFFF;}
</style>
<rect id="XMLID_203_" class="st0" width="2000" height="2000"/>
<g id="XMLID_205_">
	<g id="XMLID_183_">
		<g id="XMLID_182_">
			<path id="XMLID_185_" class="st1" d="M37.53,1474.4h107.53c10.31,0,19.15,3.94,26.5,11.84c7.35,7.89,11.03,17.37,11.03,28.43
				v115.37c0,11.07-3.68,20.55-11.03,28.44c-7.35,7.89-16.19,11.84-26.5,11.84H37.53c-10.49,0-19.36-3.9-26.63-11.7
				c-7.27-7.8-10.9-17.32-10.9-28.57v-115.37c0-11.24,3.63-20.77,10.9-28.57C18.17,1478.31,27.05,1474.4,37.53,1474.4z
				 M39.31,1516.85v111.02h103.47v-111.02H39.31z"/>
			<path id="XMLID_188_" class="st1" d="M286.57,1474.67h144.81c10.31,0,19.19,3.95,26.63,11.84c7.44,7.89,11.16,17.37,11.16,28.43
				v50.61c0,11.07-3.72,20.54-11.16,28.43c-7.44,7.89-16.32,11.84-26.63,11.84l-105.5,0.27c0.51,0,0.76,0.54,0.76,1.63
				c-0.34,0-0.59-0.09-0.76-0.27v62.86h-39.31V1474.67z M325.88,1516.85v46.53h103.47v-46.53H325.88z"/>
		</g>
		<g id="XMLID_157_">
			<g>
				<path id="XMLID_98_" class="st2" d="M744.58,1507.06v7.62h-20.54v-7.62c0-2.9-0.98-5.4-2.92-7.48
					c-1.94-2.08-4.27-3.13-6.97-3.13H592.42c-2.71,0-5.03,1.05-6.97,3.13c-1.95,2.09-2.92,4.59-2.92,7.48v43.81
					c0,2.9,0.97,5.35,2.92,7.35c1.94,2,4.27,2.99,6.97,2.99h121.73c8.45,0,15.64,3.17,21.56,9.52c5.92,6.35,8.88,14.06,8.88,23.13
					v43.81c0,9.07-2.96,16.78-8.88,23.13c-5.92,6.35-13.11,9.52-21.56,9.52H592.42c-8.46,0-15.64-3.17-21.56-9.52
					c-5.92-6.35-8.88-14.05-8.88-23.13v-7.62h20.54v7.62c0,2.9,0.97,5.4,2.92,7.48c1.94,2.09,4.27,3.13,6.97,3.13h121.73
					c2.7,0,5.03-1.04,6.97-3.13c1.94-2.08,2.92-4.58,2.92-7.48v-43.81c0-2.9-0.98-5.35-2.92-7.35c-1.94-1.99-4.27-2.99-6.97-2.99
					H592.42c-8.46,0-15.64-3.17-21.56-9.52c-5.92-6.35-8.88-14.06-8.88-23.13v-43.81c0-9.07,2.96-16.78,8.88-23.13
					c5.92-6.35,13.1-9.52,21.56-9.52h121.73c8.45,0,15.64,3.17,21.56,9.52C741.62,1490.28,744.58,1497.99,744.58,1507.06z"/>
				<path id="XMLID_96_" class="st2" d="M838.67,1474.4h182.6v22.04h-80.9v173.88h-20.54v-173.88h-81.15V1474.4z"/>
				<path id="XMLID_93_" class="st2" d="M1147.3,1474.4h121.73c8.45,0,15.64,3.17,21.56,9.52c5.92,6.35,8.87,14.06,8.87,23.13
					v163.26h-20.54v-71.57h-141.51v71.57h-20.54v-163.26c0-9.07,2.96-16.78,8.88-23.13
					C1131.66,1477.58,1138.85,1474.4,1147.3,1474.4z M1137.41,1576.71h141.51v-69.66c0-2.9-0.98-5.4-2.91-7.48
					c-1.95-2.08-4.28-3.13-6.98-3.13H1147.3c-2.71,0-5.03,1.05-6.97,3.13c-1.95,2.09-2.92,4.59-2.92,7.48V1576.71z"/>
				<path id="XMLID_90_" class="st2" d="M1586.8,1507.33v57.42c0,9.07-2.96,16.78-8.87,23.13c-5.92,6.35-13.1,9.52-21.56,9.52h-27.9
					l57.32,72.93h-27.14l-57.06-72.93h-66.95c-1.52,0-4.82-0.36-9.89-1.09v74.01h-20.54v-195.65h152.16
					c8.45,0,15.64,3.18,21.56,9.52C1583.84,1490.55,1586.8,1498.26,1586.8,1507.33z M1434.64,1575.08h121.73
					c2.7,0,4.99-0.99,6.85-2.99c1.86-2,2.79-4.44,2.79-7.35v-57.42c0-2.9-0.93-5.39-2.79-7.48c-1.86-2.08-4.15-3.13-6.85-3.13
					h-121.73c-2.71,0-5.03,1.05-6.97,3.13c-1.95,2.09-2.92,4.58-2.92,7.48v57.42c0,2.9,0.97,5.35,2.92,7.35
					C1429.6,1574.09,1431.93,1575.08,1434.64,1575.08z"/>
				<path id="XMLID_88_" class="st2" d="M1871.09,1507.06v7.62h-20.54v-7.62c0-2.9-0.97-5.4-2.92-7.48
					c-1.95-2.08-4.27-3.13-6.97-3.13h-121.73c-2.71,0-5.03,1.05-6.98,3.13c-1.95,2.09-2.91,4.59-2.91,7.48v43.81
					c0,2.9,0.97,5.35,2.91,7.35c1.94,2,4.27,2.99,6.98,2.99h121.73c8.45,0,15.63,3.17,21.56,9.52c5.92,6.35,8.88,14.06,8.88,23.13
					v43.81c0,9.07-2.96,16.78-8.88,23.13c-5.92,6.35-13.1,9.52-21.56,9.52h-121.73c-8.46,0-15.64-3.17-21.56-9.52
					c-5.92-6.35-8.87-14.05-8.87-23.13v-7.62h20.54v7.62c0,2.9,0.97,5.4,2.91,7.48c1.94,2.09,4.27,3.13,6.98,3.13h121.73
					c2.7,0,5.03-1.04,6.97-3.13c1.94-2.08,2.92-4.58,2.92-7.48v-43.81c0-2.9-0.97-5.35-2.92-7.35c-1.95-1.99-4.27-2.99-6.97-2.99
					h-121.73c-8.46,0-15.64-3.17-21.56-9.52c-5.92-6.35-8.87-14.06-8.87-23.13v-43.81c0-9.07,2.95-16.78,8.87-23.13
					c5.92-6.35,13.1-9.52,21.56-9.52h121.73c8.45,0,15.63,3.17,21.56,9.52C1868.14,1490.28,1871.09,1497.99,1871.09,1507.06z"/>
			</g>
		</g>
	</g>
	<g id="XMLID_204_">
		<polygon id="XMLID_181_" class="st0" points="1052.39,606.35 978.01,400.14 942.94,302.51 928.68,262.67 895.26,350.5 
			876.72,398.92 839.64,495.7 799.56,599.52 691.81,649.72 590.49,696.57 439.6,765.93 591.71,831.44 806.46,924.51 883.28,1130.04 
			929.12,1253.19 974.36,1129.73 1050.43,922.93 1265.45,827.29 1406.57,764.79 1265.97,702.07 		"/>
		<path id="XMLID_161_" class="st1" d="M742.25,585.47l-132.98,49.98l-133.13,49.67l-266.5,98.83l-0.02-11.9l268.68,93.36
			l268.44,93.86l4.58,1.6l1.89,4.07l95.4,205.9l95.05,206.02l-25.78,0l93.78-206.48l94.1-206.37l2.26-4.95l5.68-2.04l267.81-96.1
			l267.98-95.75l0.04,21.89l-267.32-96.21l-267.14-96.6l-4.39-1.59l-1.67-3.73l-92.5-206.92L970.4,278.5l-45.95-103.56l12.59,0
			l-48.44,102.72l-24.22,51.36l-24.35,51.32L791.3,482.96L742.25,585.47z M742.25,585.47l45.2-103.83l45.51-103.72l22.78-51.85
			l22.91-51.81l45.81-103.62l6.1-13.8l6.49,13.8l48.31,102.76l48.16,102.81l96,205.72l-6.06-5.32l268.33,94.09l268.15,94.47
			l30.67,10.81l-30.63,11.08l-267.49,96.78l-267.66,96.43l7.94-6.99l-94.41,206.26l-94.72,206.16l-12.99,28.27l-12.79-28.27
			l-93.45-206.57L731.3,972.44l6.47,5.67l-267.03-96.82l-266.79-97.33l-16.7-6.09l16.67-5.81l268.97-93.71l134.6-46.6L742.25,585.47
			z"/>
	</g>
	<path id="XMLID_206_" class="st1" d="M1541.99,1448.49c0,0,602.3-125.45,362.05,227.38
		C1904.04,1675.87,2280.55,1273.38,1541.99,1448.49z"/>
</g>
</svg>
