<svg id="Layer_1" data-name="Layer 1" xmlns="http://www.w3.org/2000/svg" viewBox="0 0 17.44 18.79"><path d="M10.65,20a.81.81,0,0,1-.47-.16,1,1,0,0,1-.36-.77v-1.7c-4.59-.23-8.26-3.76-8.26-8.07,0-4.46,3.92-8.09,8.72-8.09S19,4.84,19,9.3a7.65,7.65,0,0,1-.79,3.37,13.34,13.34,0,0,1-7.27,7.27A.72.72,0,0,1,10.65,20ZM10.28,2.25C6,2.25,2.5,5.41,2.5,9.3s3.49,7,7.78,7h.47v2.57a12.3,12.3,0,0,0,6.61-6.67l0-.05a6.4,6.4,0,0,0,.69-2.89C18.07,5.41,14.58,2.25,10.28,2.25Z" transform="translate(-1.56 -1.21)"/><path d="M6.37,11.24A1.21,1.21,0,0,1,5.23,10,1.21,1.21,0,0,1,6.37,8.69,1.21,1.21,0,0,1,7.51,10,1.21,1.21,0,0,1,6.37,11.24Zm4,0A1.21,1.21,0,0,1,9.2,10a1.21,1.21,0,0,1,1.14-1.27A1.22,1.22,0,0,1,11.49,10,1.22,1.22,0,0,1,10.34,11.24Zm4,0A1.22,1.22,0,0,1,13.17,10a1.15,1.15,0,1,1,2.29,0A1.21,1.21,0,0,1,14.32,11.24Z" transform="translate(-1.56 -1.21)"/></svg>