<?xml version="1.0" encoding="utf-8"?>
<!-- Generator: Adobe Illustrator 25.4.1, SVG Export Plug-In . SVG Version: 6.00 Build 0)  -->
<svg version="1.1" id="Layer_1" xmlns="http://www.w3.org/2000/svg" xmlns:xlink="http://www.w3.org/1999/xlink" x="0px" y="0px"
	 viewBox="0 0 21 21" style="enable-background:new 0 0 21 21;" xml:space="preserve">
<g>
	<g>
		<g>
			<path d="M10.51,21c-0.29,0-0.57-0.09-0.8-0.25c-0.16-0.11-1.61-1.15-3.4-2.69c-2.5-2.14-4.33-4.11-5.45-5.84
				c-1.12-1.73-1.14-4.41-0.04-6.39c0.9-1.63,2.43-2.6,4.29-2.72C5.96,3.06,7.27,3.1,8.56,3.64c0.76,0.31,1.42,0.76,1.98,1.32
				c0.75-0.7,1.58-1.12,2.19-1.35c0.58-0.23,1.21-0.39,1.82-0.47c0.56-0.07,1.1-0.07,1.51,0c1.94,0.33,3.47,1.48,4.3,3.23
				c0.91,1.9,0.83,4.25-0.21,5.86c-1.12,1.73-2.95,3.7-5.45,5.84c-0.96,0.82-1.83,1.51-2.39,1.94c-0.32,0.24-0.57,0.43-0.73,0.55
				c-0.39,0.29-0.55,0.4-0.92,0.45C10.61,21,10.56,21,10.51,21z M5.67,4.15c-0.18,0-0.34,0.01-0.5,0.02
				C3.71,4.26,2.52,5.02,1.8,6.32c-0.92,1.67-0.92,3.92,0.01,5.35c1.06,1.65,2.83,3.54,5.25,5.61c1.79,1.53,3.26,2.58,3.32,2.63
				c0.04,0.03,0.1,0.04,0.15,0.04c0.02,0,0.03,0,0.04-0.01c0.04-0.02,0.17-0.12,0.32-0.22c0.15-0.11,0.4-0.3,0.72-0.54
				c0.55-0.42,1.4-1.09,2.34-1.9c2.42-2.07,4.19-3.96,5.25-5.61c0.85-1.32,0.91-3.28,0.15-4.88c-0.68-1.43-1.92-2.36-3.48-2.62
				c-0.3-0.05-0.72-0.05-1.16,0.01c-0.52,0.07-1.05,0.2-1.55,0.4c-0.62,0.24-1.5,0.7-2.2,1.51c-0.11,0.13-0.28,0.19-0.45,0.2
				c-0.17,0-0.34-0.08-0.44-0.21C9.56,5.42,8.9,4.93,8.11,4.6C7.25,4.24,6.37,4.15,5.67,4.15z"/>
		</g>
	</g>
</g>
</svg>
