<?xml version="1.0" encoding="utf-8"?>
<!-- Generator: Adobe Illustrator 25.4.1, SVG Export Plug-In . SVG Version: 6.00 Build 0)  -->
<svg version="1.1" id="Layer_1" xmlns="http://www.w3.org/2000/svg" xmlns:xlink="http://www.w3.org/1999/xlink" x="0px" y="0px"
	 viewBox="0 0 21 21" style="enable-background:new 0 0 21 21;" xml:space="preserve">
<style type="text/css">
	.st0{fill:#FF3F4C;}
</style>
<g>
	<g>
		<g>
			<path class="st0" d="M10.34,19c-0.14,0-0.29-0.05-0.4-0.14c-0.05-0.04-1.34-1.03-2.93-2.5c-2.14-1.98-3.71-3.79-4.66-5.38
				C1.46,9.5,1.45,7.18,2.33,5.47c0.71-1.38,1.89-2.19,3.33-2.29c0.7-0.05,1.76-0.01,2.79,0.45c0.77,0.34,1.41,0.86,1.91,1.54
				c0.65-0.82,1.47-1.3,2.11-1.57c0.47-0.2,0.98-0.34,1.47-0.41c0.44-0.06,0.85-0.06,1.16-0.01c1.52,0.28,2.73,1.26,3.39,2.75
				c0.73,1.64,0.67,3.67-0.15,5.04c-0.95,1.59-2.52,3.4-4.66,5.38c-0.83,0.76-1.58,1.4-2.06,1.8c-0.27,0.23-0.49,0.4-0.63,0.51
				c-0.32,0.25-0.37,0.29-0.56,0.32C10.4,19,10.37,19,10.34,19z"/>
		</g>
	</g>
</g>
</svg>
