<?xml version="1.0" encoding="utf-8"?>
<!-- Generator: Adobe Illustrator 25.2.0, SVG Export Plug-In . SVG Version: 6.00 Build 0)  -->
<svg version="1.1" id="Layer_1" xmlns="http://www.w3.org/2000/svg" xmlns:xlink="http://www.w3.org/1999/xlink" x="0px" y="0px"
	 viewBox="0 0 2000 2000" style="enable-background:new 0 0 2000 2000;" xml:space="preserve">
<style type="text/css">
	.st0{fill:#0A212A;}
	.st1{fill:#FFFFFF;}
	.st2{fill:#ADB4B7;}
</style>
<rect id="XMLID_203_" x="-39.92" y="-47.91" class="st0" width="2972.98" height="2675.51"/>
<g id="XMLID_205_">
	<g id="XMLID_183_">
		<g id="XMLID_182_">
			<path id="XMLID_185_" class="st1" d="M54.13,2197.71h155.07c14.87,0,27.61,6.11,38.22,18.33c10.61,12.22,15.91,26.91,15.91,44.04
				v178.71c0,17.15-5.3,31.83-15.91,44.05c-10.61,12.22-23.35,18.33-38.22,18.33H54.13c-15.12,0-27.92-6.04-38.4-18.13
				C5.24,2470.97,0,2456.22,0,2438.79v-178.71c0-17.42,5.24-32.17,15.73-44.26C26.21,2203.75,39.01,2197.71,54.13,2197.71z
				 M56.69,2263.46v171.97H205.9v-171.97H56.69z"/>
			<path id="XMLID_188_" class="st1" d="M413.26,2198.12h208.83c14.87,0,27.67,6.11,38.4,18.34c10.73,12.22,16.09,26.91,16.09,44.04
				v78.4c0,17.14-5.36,31.82-16.09,44.04c-10.73,12.22-23.53,18.33-38.4,18.33l-152.14,0.42c0.73,0,1.1,0.84,1.1,2.53
				c-0.49,0-0.86-0.14-1.1-0.42v97.36h-56.69V2198.12z M469.95,2263.46v72.07h149.22v-72.07H469.95z"/>
		</g>
		<g id="XMLID_157_">
			<g>
				<path id="XMLID_98_" class="st2" d="M1073.76,2248.28v11.8h-29.62v-11.8c0-4.49-1.41-8.36-4.21-11.59
					c-2.8-3.23-6.16-4.84-10.06-4.84H854.32c-3.9,0-7.26,1.62-10.06,4.84c-2.81,3.23-4.21,7.1-4.21,11.59v67.86
					c0,4.5,1.4,8.29,4.21,11.38c2.8,3.1,6.15,4.64,10.06,4.64h175.55c12.19,0,22.55,4.92,31.09,14.75
					c8.53,9.84,12.8,21.78,12.8,35.82v67.86c0,14.05-4.27,25.99-12.8,35.82c-8.54,9.84-18.9,14.75-31.09,14.75H854.32
					c-12.19,0-22.56-4.91-31.09-14.75c-8.54-9.83-12.8-21.77-12.8-35.82v-11.8h29.62v11.8c0,4.5,1.4,8.36,4.21,11.59
					c2.8,3.23,6.15,4.85,10.06,4.85h175.55c3.9,0,7.25-1.61,10.06-4.85c2.8-3.23,4.21-7.09,4.21-11.59v-67.86
					c0-4.49-1.41-8.29-4.21-11.38c-2.8-3.09-6.16-4.63-10.06-4.63H854.32c-12.19,0-22.56-4.91-31.09-14.75
					c-8.54-9.83-12.8-21.77-12.8-35.83v-67.86c0-14.05,4.26-25.99,12.8-35.83c8.53-9.83,18.89-14.75,31.09-14.75h175.55
					c12.19,0,22.55,4.92,31.09,14.75C1069.49,2222.29,1073.76,2234.23,1073.76,2248.28z"/>
				<path id="XMLID_96_" class="st2" d="M1209.44,2197.71h263.32v34.14h-116.67v269.33h-29.62v-269.33h-117.03V2197.71z"/>
				<path id="XMLID_93_" class="st2" d="M1654.52,2197.71h175.55c12.19,0,22.55,4.92,31.09,14.75c8.53,9.84,12.8,21.78,12.8,35.83
					v252.89h-29.62v-110.85h-204.08v110.85h-29.62v-252.89c0-14.05,4.26-25.99,12.8-35.83
					C1631.97,2202.62,1642.32,2197.71,1654.52,2197.71z M1640.26,2356.18h204.08v-107.9c0-4.49-1.41-8.36-4.2-11.59
					c-2.81-3.23-6.17-4.84-10.06-4.84h-175.55c-3.9,0-7.26,1.62-10.06,4.84c-2.81,3.23-4.21,7.1-4.21,11.59V2356.18z"/>
				<path id="XMLID_90_" class="st2" d="M2288.32,2248.7v88.94c0,14.05-4.27,25.99-12.8,35.83c-8.54,9.84-18.9,14.75-31.09,14.75
					h-40.23l82.65,112.96h-39.13l-82.29-112.96h-96.55c-2.19,0-6.95-0.56-14.26-1.68v114.64H2025v-303.05h219.43
					c12.19,0,22.55,4.92,31.09,14.75C2284.05,2222.72,2288.32,2234.66,2288.32,2248.7z M2068.88,2353.65h175.55
					c3.9,0,7.19-1.54,9.88-4.63c2.68-3.09,4.02-6.88,4.02-11.38v-88.94c0-4.49-1.34-8.35-4.02-11.59c-2.69-3.23-5.98-4.85-9.88-4.85
					h-175.55c-3.9,0-7.26,1.62-10.06,4.85c-2.81,3.23-4.21,7.1-4.21,11.59v88.94c0,4.5,1.4,8.29,4.21,11.38
					C2061.63,2352.11,2064.98,2353.65,2068.88,2353.65z"/>
				<path id="XMLID_88_" class="st2" d="M2698.3,2248.28v11.8h-29.62v-11.8c0-4.49-1.41-8.36-4.21-11.59
					c-2.81-3.23-6.16-4.84-10.06-4.84h-175.55c-3.9,0-7.26,1.62-10.06,4.84c-2.81,3.23-4.2,7.1-4.2,11.59v67.86
					c0,4.5,1.4,8.29,4.2,11.38c2.8,3.1,6.16,4.64,10.06,4.64h175.55c12.19,0,22.55,4.92,31.08,14.75
					c8.53,9.84,12.8,21.78,12.8,35.82v67.86c0,14.05-4.27,25.99-12.8,35.82c-8.54,9.84-18.9,14.75-31.08,14.75h-175.55
					c-12.19,0-22.56-4.91-31.09-14.75c-8.54-9.83-12.8-21.77-12.8-35.82v-11.8h29.62v11.8c0,4.5,1.4,8.36,4.2,11.59
					c2.8,3.23,6.16,4.85,10.06,4.85h175.55c3.9,0,7.25-1.61,10.06-4.85c2.8-3.23,4.21-7.09,4.21-11.59v-67.86
					c0-4.49-1.41-8.29-4.21-11.38c-2.81-3.09-6.16-4.63-10.06-4.63h-175.55c-12.19,0-22.56-4.91-31.09-14.75
					c-8.54-9.83-12.8-21.77-12.8-35.83v-67.86c0-14.05,4.26-25.99,12.8-35.83c8.53-9.83,18.89-14.75,31.09-14.75h175.55
					c12.19,0,22.55,4.92,31.08,14.75C2694.03,2222.29,2698.3,2234.23,2698.3,2248.28z"/>
			</g>
		</g>
	</g>
	<g id="XMLID_204_">
		<polygon id="XMLID_181_" class="st0" points="1517.64,853.12 1410.39,533.72 1359.81,382.49 1339.24,320.77 1291.05,456.81 
			1264.32,531.83 1210.84,681.73 1153.04,842.54 997.66,920.29 851.54,992.87 633.95,1100.31 853.3,1201.78 1162.99,1345.95 
			1273.78,1664.3 1339.88,1855.05 1405.12,1663.82 1514.82,1343.49 1824.9,1195.36 2028.4,1098.55 1825.65,1001.39 		"/>
		<path id="XMLID_161_" class="st1" d="M1070.39,820.78L878.62,898.2l-191.99,76.94l-384.33,153.09l-0.03-18.43l387.46,144.61
			l387.11,145.39l6.6,2.48l2.72,6.31l137.57,318.93l137.08,319.12l-37.18,0l135.24-319.83l135.7-319.66l3.26-7.67l8.19-3.16
			l386.21-148.86l386.46-148.32l0.06,33.91l-385.5-149.03l-385.24-149.63l-6.34-2.46l-2.4-5.78l-133.4-320.51l-66.47-160.34
			l-66.26-160.41l18.16,0L1281.46,344l-34.93,79.56l-35.11,79.49l-70.29,158.95L1070.39,820.78z M1070.39,820.78l65.19-160.83
			l65.63-160.67l32.85-80.32l33.03-80.25l66.07-160.5l8.8-21.38l9.36,21.38l69.66,159.16l69.45,159.24l138.44,318.65l-8.74-8.24
			l386.96,145.74l386.7,146.34l44.24,16.74l-44.17,17.17l-385.74,149.91l-385.98,149.37l11.45-10.83l-136.14,319.5l-136.6,319.33
			l-18.73,43.79l-18.44-43.79l-134.77-319.97l-134.27-320.15l9.32,8.79l-385.08-149.98l-384.74-150.76l-24.08-9.44l24.05-9
			l387.87-145.15l194.11-72.18L1070.39,820.78z"/>
	</g>
	<path id="XMLID_206_" class="st1" d="M2223.69,2157.57c0,0,868.57-194.32,522.11,352.21
		C2745.8,2509.78,3288.77,1886.33,2223.69,2157.57z"/>
</g>
</svg>
